<svg xmlns="http://www.w3.org/2000/svg" width="16px" height="18px" viewBox="-94 0 482 482.21308"><g><path d="m294.265625 157.214844c0 47.398437-19.800781 90-51 118.898437-9.128906 8.710938-12.671875 21.769531-9.199219 33.898438 0 .101562 0 .101562.101563.203125l8 27.898437c1.746093 6.03125.550781 12.535157-3.226563 17.550781-3.777344 5.015626-9.695312 7.960938-15.976562 7.949219h-151.597656c-6.28125.011719-12.199219-2.933593-15.976563-7.949219-3.777344-5.015624-4.972656-11.519531-3.222656-17.550781l8-27.898437c0-.101563 0-.101563.097656-.203125 3.523437-12.128907-.027344-25.214844-9.199219-33.898438-32.101562-29.699219-52.199218-74-50.898437-123.199219 2.097656-85.601562 68.898437-154 149-152.9023432 80.199219 1.1015622 145.097656 71.2031252 145.097656 157.2031252zm0 0" fill="#00efd1" data-original="#00EFD1" class="" data-old_color="#00efd1" style="fill:#E8F90A"/><g fill="#00acea"><path d="m219.964844 412.914062h-145.597656c-5.523438 0-10-4.476562-10-10 0-5.523437 4.476562-10 10-10h145.699218c5.523438.027344 9.976563 4.527344 9.949219 10.050782-.027344 5.519531-4.527344 9.976562-10.050781 9.949218zm0 0" data-original="#00ACEA" class="active-path" data-old_color="#00ACEA" style="fill:#EADA00"/><path d="m219.964844 447.613281h-145.597656c-5.523438 0-10-4.476562-10-10 0-5.523437 4.476562-10 10-10h145.699218c5.523438.027344 9.976563 4.527344 9.949219 10.050781-.027344 5.523438-4.527344 9.976563-10.050781 9.949219zm0 0" data-original="#00ACEA" class="active-path" data-old_color="#00ACEA" style="fill:#EADA00"/><path d="m200.667969 482.214844h-107c-5.523438 0-10-4.480469-10-10 0-5.523438 4.476562-10 10-10h107c5.519531 0 10 4.476562 10 10 0 5.519531-4.480469 10-10 10zm0 0" data-original="#00ACEA" class="active-path" data-old_color="#00ACEA" style="fill:#EADA00"/></g></g> </svg>